<svg width="408" height="400" viewBox="0 0 408 400" fill="none" xmlns="http://www.w3.org/2000/svg">
<g filter="url(#filter0_d_1304_35)">
<path d="M381.905 201.265L357.638 199.665C354.438 199.398 352.838 195.932 354.438 193.265L368.038 172.732C369.905 169.799 367.504 166.065 364.038 166.332L339.771 169.799C336.838 170.332 334.438 167.132 335.505 164.199L344.838 141.266C346.171 138.066 342.971 134.866 339.771 135.933L316.838 144.199C313.905 145.266 310.971 142.866 311.505 139.666L316.038 115.399C316.571 111.933 312.838 109.266 309.905 111.133L289.105 123.933C286.438 125.533 282.971 123.666 282.971 120.466L282.438 95.9331C282.438 92.4665 278.171 90.5998 275.505 92.9998L257.638 109.8C255.238 111.933 251.505 110.866 250.971 107.666L245.638 83.6666C244.838 80.2 240.305 79.4 238.438 82.3333L224.305 102.333C222.438 105 218.705 104.466 217.371 101.533L207.505 79.1333C206.971 77.8 205.905 77.2667 204.838 77H204.571H204.305C203.238 77.2667 202.171 78.0667 201.638 79.1333L191.771 101.533C190.438 104.466 186.705 104.733 184.838 102.333L170.705 82.3333C168.571 79.4 164.305 80.4666 163.505 83.6666L158.171 107.666C157.371 110.6 153.638 111.933 151.505 109.8L133.638 92.9998C130.971 90.5998 126.971 92.4665 126.705 95.9331L126.171 120.466C126.171 123.666 122.705 125.533 120.038 123.933L99.2378 111.133C96.3045 109.266 92.5712 111.933 93.1045 115.399L97.6378 139.666C98.1712 142.866 95.2378 145.266 92.3045 144.199L69.3712 135.933C66.1712 134.866 62.9712 138.066 64.3045 141.266L73.6378 164.199C74.7045 167.132 72.3045 170.065 69.3712 169.799L45.1045 166.332C41.6378 165.799 39.2378 169.799 41.1045 172.732L54.7045 193.265C56.3045 195.932 54.7045 199.398 51.5045 199.665L27.2378 201.265C23.7712 201.532 22.1712 205.798 24.5712 208.198C37.6378 221.265 53.1045 231.931 69.9045 239.665C81.1045 232.998 93.9045 229.531 107.505 229.531C119.238 229.531 130.971 232.198 141.105 237.531C152.038 243.131 161.371 251.664 168.305 261.531C180.305 262.598 192.305 263.131 204.571 263.131H204.838H205.105C217.371 263.131 229.371 262.598 241.371 261.531C248.305 251.398 257.638 243.131 268.571 237.531C278.705 232.465 290.438 229.531 302.171 229.531C315.505 229.531 328.571 232.998 339.771 239.665C356.571 231.931 372.038 221.265 385.105 208.198C386.971 205.798 385.371 201.532 381.905 201.265Z" fill="url(#paint0_linear_1304_35)"/>
<path d="M143.238 259.131C140.038 256.464 136.838 254.331 133.105 252.465C120.571 246.065 105.638 244.731 92.3045 248.198C87.2379 249.531 82.4379 251.398 77.9045 254.064C72.3045 273.264 81.6379 298.331 97.1045 311.397C110.438 322.597 129.905 326.33 146.705 321.264C148.571 320.73 148.305 318.064 146.438 317.797C132.571 314.597 120.838 302.331 119.505 288.197C133.105 289.264 145.905 292.197 158.705 296.464C161.371 297.264 164.038 295.131 163.505 292.464C160.305 279.397 153.105 267.398 143.238 259.131Z" fill="url(#paint1_linear_1304_35)"/>
<path d="M316.305 248.198C302.705 244.731 288.038 246.065 275.505 252.465C271.771 254.331 268.571 256.731 265.371 259.131C255.238 267.398 248.038 279.397 245.371 292.197C244.838 294.864 247.505 297.264 250.171 296.197C262.971 291.931 275.771 289.264 289.371 287.931C287.771 302.064 276.038 314.33 262.438 317.53C260.571 318.064 260.305 320.464 262.171 320.997C278.971 326.33 298.438 322.597 311.771 311.13C326.971 298.331 336.571 272.998 330.971 253.798C326.438 251.398 321.371 249.531 316.305 248.198Z" fill="url(#paint2_linear_1304_35)"/>
<path d="M39.7714 282.864C37.6381 279.664 35.2381 276.464 34.4381 272.464C33.6381 267.131 36.0381 261.798 40.0381 257.798C43.7714 254.064 48.8381 251.398 53.6381 248.998C45.1047 245.265 37.6381 242.065 31.2381 238.331C29.1047 236.998 26.7047 237.531 25.1047 239.131C19.5047 245.531 7.77141 259.931 9.10475 267.931C9.90475 273.264 14.1714 277.264 18.1714 280.731C28.3047 289.797 38.9714 297.797 50.1714 305.53C52.3047 307.13 54.9714 304.464 53.6381 302.064C48.8381 295.664 44.3047 289.264 39.7714 282.864Z" fill="url(#paint3_linear_1304_35)"/>
<path d="M383.505 239.398C381.905 237.531 379.238 237.265 377.371 238.598C370.971 242.331 363.505 245.531 354.971 249.265C359.771 251.664 364.838 254.331 368.571 258.064C372.305 261.798 374.971 267.398 374.171 272.731C373.638 276.464 371.238 279.931 368.838 283.131C364.305 289.531 359.771 295.931 355.238 302.33C353.638 304.464 356.305 307.13 358.705 305.797C369.905 298.064 380.571 290.064 390.705 281.264C394.705 277.797 398.971 273.798 399.771 268.464C401.105 260.198 389.105 245.531 383.505 239.398Z" fill="url(#paint4_linear_1304_35)"/>
<path d="M173.371 180.199C170.971 180.199 168.838 180.732 166.971 181.532C167.238 181.532 167.505 181.532 167.771 181.532C172.838 181.532 176.838 186.065 176.838 191.932C176.838 197.532 172.838 202.332 167.771 202.332C162.705 202.332 158.705 197.798 158.705 191.932C158.705 190.065 159.238 188.465 159.771 186.865C156.305 190.865 154.171 196.199 154.171 202.332C154.171 214.332 162.705 224.198 173.371 224.198C184.038 224.198 192.571 214.332 192.571 202.332C192.571 189.799 184.038 180.199 173.371 180.199Z" fill="#171E2E"/>
<path d="M235.238 180.199C232.838 180.199 230.705 180.732 228.838 181.532C229.105 181.532 229.371 181.532 229.638 181.532C234.705 181.532 238.705 186.065 238.705 191.932C238.705 197.532 234.705 202.332 229.638 202.332C224.571 202.332 220.571 197.798 220.571 191.932C220.571 190.065 221.105 188.465 221.638 186.865C218.171 190.865 216.038 196.199 216.038 202.332C216.038 214.332 224.571 224.198 235.238 224.198C245.905 224.198 254.438 214.332 254.438 202.332C254.705 189.799 245.905 180.199 235.238 180.199Z" fill="#171E2E"/>
<path d="M167.505 181.265C167.238 181.265 166.971 181.265 166.705 181.265C164.038 182.332 161.371 184.198 159.505 186.598C158.705 188.198 158.438 189.798 158.438 191.665C158.438 197.265 162.438 202.065 167.505 202.065C172.571 202.065 176.571 197.532 176.571 191.665C176.571 186.065 172.571 181.265 167.505 181.265Z" fill="white"/>
<path d="M229.638 181.265C229.371 181.265 229.105 181.265 228.838 181.265C226.171 182.332 223.505 184.198 221.638 186.598C220.838 188.198 220.571 189.798 220.571 191.665C220.571 197.265 224.571 202.065 229.638 202.065C234.705 202.065 238.705 197.532 238.705 191.665C238.705 186.065 234.438 181.265 229.638 181.265Z" fill="white"/>
</g>
<defs>
<filter id="filter0_d_1304_35" x="0" y="0" width="408" height="408" filterUnits="userSpaceOnUse" color-interpolation-filters="sRGB">
<feFlood flood-opacity="0" result="BackgroundImageFix"/>
<feColorMatrix in="SourceAlpha" type="matrix" values="0 0 0 0 0 0 0 0 0 0 0 0 0 0 0 0 0 0 127 0" result="hardAlpha"/>
<feOffset dy="4"/>
<feGaussianBlur stdDeviation="2"/>
<feColorMatrix type="matrix" values="0 0 0 0 0 0 0 0 0 0 0 0 0 0 0 0 0 0 0.25 0"/>
<feBlend mode="normal" in2="BackgroundImageFix" result="effect1_dropShadow_1304_35"/>
<feBlend mode="normal" in="SourceGraphic" in2="effect1_dropShadow_1304_35" result="shape"/>
</filter>
<linearGradient id="paint0_linear_1304_35" x1="27.1733" y1="170.413" x2="362.407" y2="170.413" gradientUnits="userSpaceOnUse">
<stop stop-color="#FD874B"/>
<stop offset="0.0159621" stop-color="#FC844A"/>
<stop offset="0.2031" stop-color="#F2623C"/>
<stop offset="0.3941" stop-color="#EA4731"/>
<stop offset="0.5883" stop-color="#E43429"/>
<stop offset="0.7876" stop-color="#E12925"/>
<stop offset="1" stop-color="#E02523"/>
</linearGradient>
<linearGradient id="paint1_linear_1304_35" x1="27.1733" y1="284.879" x2="362.407" y2="284.879" gradientUnits="userSpaceOnUse">
<stop stop-color="#FD874B"/>
<stop offset="0.0159621" stop-color="#FC844A"/>
<stop offset="0.2031" stop-color="#F2623C"/>
<stop offset="0.3941" stop-color="#EA4731"/>
<stop offset="0.5883" stop-color="#E43429"/>
<stop offset="0.7876" stop-color="#E12925"/>
<stop offset="1" stop-color="#E02523"/>
</linearGradient>
<linearGradient id="paint2_linear_1304_35" x1="27.1735" y1="284.879" x2="362.407" y2="284.879" gradientUnits="userSpaceOnUse">
<stop stop-color="#FD874B"/>
<stop offset="0.0159621" stop-color="#FC844A"/>
<stop offset="0.2031" stop-color="#F2623C"/>
<stop offset="0.3941" stop-color="#EA4731"/>
<stop offset="0.5883" stop-color="#E43429"/>
<stop offset="0.7876" stop-color="#E12925"/>
<stop offset="1" stop-color="#E02523"/>
</linearGradient>
<linearGradient id="paint3_linear_1304_35" x1="27.1735" y1="271.794" x2="362.407" y2="271.794" gradientUnits="userSpaceOnUse">
<stop stop-color="#FD874B"/>
<stop offset="0.0159621" stop-color="#FC844A"/>
<stop offset="0.2031" stop-color="#F2623C"/>
<stop offset="0.3941" stop-color="#EA4731"/>
<stop offset="0.5883" stop-color="#E43429"/>
<stop offset="0.7876" stop-color="#E12925"/>
<stop offset="1" stop-color="#E02523"/>
</linearGradient>
<linearGradient id="paint4_linear_1304_35" x1="27.1735" y1="271.794" x2="362.407" y2="271.794" gradientUnits="userSpaceOnUse">
<stop stop-color="#FD874B"/>
<stop offset="0.0159621" stop-color="#FC844A"/>
<stop offset="0.2031" stop-color="#F2623C"/>
<stop offset="0.3941" stop-color="#EA4731"/>
<stop offset="0.5883" stop-color="#E43429"/>
<stop offset="0.7876" stop-color="#E12925"/>
<stop offset="1" stop-color="#E02523"/>
</linearGradient>
</defs>
</svg>
